<svg id="Слой_1" data-name="Слой 1" xmlns="http://www.w3.org/2000/svg" viewBox="0 0 250 209.78"><defs><style>.cls-1{fill:#333;}.cls-2{fill:#2b2b2b;}.cls-3{fill:#1d1d1d;}</style></defs><title>LargeLogoMain</title><path class="cls-1" d="M250,16.19q-19.55,89.31-39.09,178.66l-.18,0-24.32-37.4-.12,0-9.66-37.55Q188.06,68,199.5,16.19Z" transform="translate(0 -15.88)"/><path class="cls-2" d="M210.91,194.85q-3.36,15.41-6.73,30.81h-.31l-17.58-68.23.12,0,24.32,37.4Z" transform="translate(0 -15.88)"/><path class="cls-3" d="M203.87,225.66h-50.5q-14.31-55.78-28.61-111.59h0s0,0,0,0Q119.88,95,115,75.9L99.77,16.5l25-.16h0l25.18-.15,26.69,103.69,9.66,37.55,17.58,68.23-50.49-.31v0Z" transform="translate(0 -15.88)"/><polygon class="cls-3" points="115 60.02 99.75 0.62 99.77 0.62 115 60.02"/><path class="cls-1" d="M124.76,114.07Q114.46,154.5,104.14,195L81.89,160.57l-8.83-40.7,20-77.77h0L115,75.9q4.88,19.09,9.75,38.15s0,0,0,0Z" transform="translate(0 -15.88)"/><polygon class="cls-2" points="99.77 0.62 115 60.02 93.11 26.23 93.08 26.23 93.08 26.22 99.75 0.31 124.75 0.46 99.77 0.62"/><path class="cls-2" d="M104.14,195q-3.9,15.36-7.82,30.7H96L81.89,160.57Z" transform="translate(0 -15.88)"/><polygon class="cls-3" points="96 209.78 45.51 209.78 0 0 50.5 0 73.06 103.99 81.89 144.69 96 209.78"/><polygon class="cls-3" points="96.01 209.78 96 209.78 81.89 144.69 96.01 209.78"/></svg>