<svg width="57" height="40" viewBox="0 0 57 40" fill="none" xmlns="http://www.w3.org/2000/svg">
<g clip-path="url(#clip0)">
<path d="M56.6039 2.59039C53.6537 12.1168 50.7039 21.6453 47.7544 31.176L47.7114 31.1688L42.2061 25.184L42.1801 25.1888L39.9929 19.1808C41.7174 13.6507 43.4431 8.12053 45.1699 2.59039H56.6039Z" fill="#898989"/>
<path d="M47.7543 31.176C47.2456 32.8198 46.7369 34.4632 46.2282 36.1064H46.158L42.1799 25.1888L42.206 25.184L47.7113 31.1688L47.7543 31.176Z" fill="#777777"/>
<path d="M42.18 25.1888L46.1581 36.1064L34.7241 36.0568L39.9928 19.1808L42.18 25.1888Z" fill="#BCBCBC"/>
<path d="M46.1581 36.1064H34.7241C32.5649 30.1555 30.4064 24.2037 28.2487 18.2512C30.1249 13.0475 32.0011 7.84373 33.8773 2.63999L28.2487 2.61519L33.9487 2.59039L39.9928 19.1808L34.7241 36.0608L46.1581 36.1064Z" fill="#BCBCBC"/>
<path d="M26.0377 12.1448L22.5848 2.64L28.2452 2.6152L33.8739 2.64C31.9977 7.84374 30.1214 13.0475 28.2452 18.2512C27.5086 16.2171 26.7728 14.1816 26.0377 12.1448Z" fill="#BCBCBC"/>
<path d="M28.2487 18.2512C26.6932 22.5637 25.137 26.8779 23.58 31.1936L18.5411 25.6904L16.5419 19.1792L21.0702 6.73682H21.077L26.0377 12.1448C26.7736 14.1816 27.5105 16.2171 28.2487 18.2512Z" fill="#898989"/>
<path d="M28.2488 2.61519L22.5884 2.63999L26.0378 12.1448L21.0816 6.73759H21.0748L22.585 2.59039L28.2488 2.61519Z" fill="#777777"/>
<path d="M18.5411 25.6904L23.58 31.1936C22.9906 32.832 22.4 34.4696 21.8083 36.1064H21.7359L18.5411 25.6904Z" fill="#777777"/>
<path d="M18.541 25.6904L21.738 36.1064H10.3754L16.5418 19.1792L18.541 25.6904Z" fill="#BCBCBC"/>
<path d="M16.5419 19.1792L10.3755 36.1064H10.3042L0 2.5408H11.434L16.5419 19.1792Z" fill="#BCBCBC"/>
</g>
<defs>
<clipPath id="clip0">
<rect width="56.6038" height="40" fill="white"/>
</clipPath>
</defs>
</svg>
