<svg id="Слой_1" data-name="Слой 1" xmlns="http://www.w3.org/2000/svg" viewBox="0 0 250 209.78"><defs><style>.cls-1{fill:#bcbcbc;}.cls-2{fill:#777;}.cls-3{fill:#898989;}.cls-4{fill:#2b2b2b;}.cls-5{fill:#1d1d1d;}</style></defs><title>LogoNew</title><path class="cls-1" d="M203.87,225.66l-50.49-.31v0l50.5.28h-50.5q-14.31-55.78-28.61-111.59h0Q119.88,95,115,75.9q-7.57-29.7-15.17-59.4l24.92-.16h0l25.18-.15,26.69,103.69,9.66,37.55Z" transform="translate(0 -15.88)"/><path class="cls-1" d="M124.75,16.34l-24.92.16c0-.1,0-.21-.08-.31Z" transform="translate(0 -15.88)"/><path class="cls-2" d="M99.75,16.19c0,.1,0,.21.08.31h-.08L115,75.9,93.11,42.11h0Z" transform="translate(0 -15.88)"/><path class="cls-3" d="M199.5,16.19H250q-19.55,89.31-39.09,178.66l-.18,0-24.32-37.4-.12,0-9.66-37.55Q188.06,68,199.5,16.19Z" transform="translate(0 -15.88)"/><path class="cls-2" d="M210.73,194.8l.18,0q-3.36,15.41-6.73,30.81h-.31l-17.58-68.23.12,0Z" transform="translate(0 -15.88)"/><path class="cls-3" d="M124.75,114.06h0Q114.46,154.5,104.14,195L81.89,160.57l-8.83-40.7,20-77.77h0L115,75.9q4.88,19.09,9.75,38.15Z" transform="translate(0 -15.88)"/><polygon class="cls-4" points="99.77 0.62 115 60.02 99.75 0.62 99.77 0.62"/><path class="cls-2" d="M81.89,160.57,104.14,195q-3.9,15.36-7.82,30.7H96Z" transform="translate(0 -15.88)"/><polygon class="cls-5" points="81.89 144.69 96.01 209.78 96 209.78 81.89 144.69"/><polygon class="cls-1" points="81.89 144.69 96 209.78 45.51 209.78 0 0 50.5 0 73.06 103.99 81.89 144.69"/><polygon class="cls-4" points="93.1 26.23 93.08 26.23 93.08 26.22 93.09 26.22 93.1 26.23"/></svg>